<?xml version="1.0" encoding="UTF-8" standalone="no"?>
<!-- Created with Inkscape (http://www.inkscape.org/) -->
<svg id="svg4683" xmlns:inkscape="http://www.inkscape.org/namespaces/inkscape" xmlns:rdf="http://www.w3.org/1999/02/22-rdf-syntax-ns#" xmlns="http://www.w3.org/2000/svg" sodipodi:docname="selene_logo_long_finished.svg" height="139.39mm" width="536.64mm" version="1.1" xmlns:cc="http://creativecommons.org/ns#" xmlns:dc="http://purl.org/dc/elements/1.1/" inkscape:version="0.91 r13725" viewBox="0 0 1901.4746 493.90768" xmlns:sodipodi="http://sodipodi.sourceforge.net/DTD/sodipodi-0.dtd">
 <defs id="defs4685">
  <clipPath id="clipPath4675" clipPathUnits="userSpaceOnUse">
   <path id="path4677" d="m182.88 685.22c-101.79 0-184.31 82.52-184.31 184.31 0.0009519 101.79 82.517 184.3 184.3 184.3 79.298-0.071 149.66-50.855 174.71-126.09-25.396 24.512-59.954 38.315-96.014 38.35-74.802 0.00035-135.44-58.06-135.44-129.68-0.00005-71.621 60.639-129.68 135.44-129.68 2.7691 0.0513 5.5359 0.18395 8.2965 0.3977-26.75-14.353-56.632-21.876-86.989-21.901z" sodipodi:nodetypes="cscccsccc" inkscape:connector-curvature="0" fill="#f9c755"/>
  </clipPath>
 </defs>
 <sodipodi:namedview id="base" bordercolor="#666666" inkscape:pageshadow="2" inkscape:window-y="24" fit-margin-left="0" pagecolor="#ffffff" inkscape:window-height="1056" inkscape:window-maximized="1" inkscape:zoom="0.24748737" inkscape:window-x="0" showgrid="false" borderopacity="1.0" inkscape:current-layer="layer1" inkscape:cx="-668.96029" inkscape:cy="626.20301" fit-margin-top="0" fit-margin-right="0" fit-margin-bottom="0" inkscape:window-width="1920" inkscape:pageopacity="0.0" inkscape:document-units="px"/>
 <metadata id="metadata4688">
  <rdf:RDF>
   <cc:Work rdf:about="">
    <dc:format>image/svg+xml</dc:format>
    <dc:type rdf:resource="http://purl.org/dc/dcmitype/StillImage"/>
    <dc:title/>
   </cc:Work>
  </rdf:RDF>
 </metadata>
 <g id="layer1" inkscape:label="Layer 1" inkscape:groupmode="layer" transform="translate(.54694 -559)">
  <g id="g4679" inkscape:export-ydpi="90" inkscape:export-filename="/home/ecofer/path4587-9.png" transform="matrix(1.0939 0 0 1.0939 0 -98.798)" inkscape:export-xdpi="90" fill="#f05732">
   <path id="path4211-2" d="m276.34 601.35c-31.612 0.12989-85.709 8.4883-108.22 60.652-4.0782 9.9809-4.6658 18.49-3.332 25.77-93.463 9.27-164.69 87.84-164.79 181.76 0.0006075 100.98 81.859 182.84 182.84 182.84 100.98-0.0006 182.83-81.859 182.83-182.84-0.0712-26.681-5.9809-53.023-17.314-77.178-7.0735-18.65-10.008-22.324-16.288-32.788-10.744-17.903-31.062-43.534-36.393-50.98-18.173-25.381-8.4205-49.411-8.4205-49.411s-9.7781 20.209-7.4283 37.356c3.1708 23.138 13.401 27.512 13.401 27.512s-6.7862-4.3717-21.48-28.914c-13.066-21.822-11-46.571-3.7773-61.359 13.713-28.078 32.465-30.836 32.465-30.836s-9.7247-1.6411-24.094-1.582z" sodipodi:nodetypes="scccsccascscsscs" inkscape:connector-curvature="0"/>
   <ellipse id="path4587" rx="182.84" ry="182.84" cy="869.53" cx="182.84"/>
  </g>
  <ellipse id="path4587-9" clip-path="url(#clipPath4675)" inkscape:export-filename="/home/ecofer/path4587-9.png" rx="182.84" ry="182.84" stroke="#f9c755" transform="matrix(1.0939 0 0 1.0939 0 -98.798)" cy="869.53" cx="182.84" inkscape:export-ydpi="90" inkscape:export-xdpi="90" fill="#f9c755"/>
  <g id="flowRoot4141" transform="translate(978.98 660.61)">
   <path id="path4146" d="m-402.52 228.43q-60.303-17.334-87.891-42.48-27.344-25.391-27.344-62.5 0-41.992 33.447-69.336 33.691-27.588 87.402-27.588 36.621 0 65.186 14.16 28.809 14.16 44.434 39.062 15.869 24.902 15.869 54.443h-47.119q0-32.227-20.508-50.537-20.508-18.555-57.861-18.555-34.668 0-54.199 15.381-19.287 15.137-19.287 42.236 0 21.729 18.311 36.865 18.555 14.893 62.744 27.344 44.434 12.451 69.336 27.588 25.146 14.893 37.109 34.912 12.207 20.02 12.207 47.119 0 43.213-33.691 69.336-33.691 25.879-90.088 25.879-36.621 0-68.359-13.916-31.738-14.16-49.072-38.574-17.09-24.414-17.09-55.42h47.119q0 32.227 23.682 51.025 23.926 18.555 63.721 18.555 37.109 0 56.885-15.137 19.775-15.137 19.775-41.26t-18.311-40.283q-18.311-14.404-66.406-28.32z"/>
   <path id="path4148" d="m-107.84 391.76q-53.711 0-87.402-35.156-33.691-35.4-33.691-94.482v-8.3008q0-39.307 14.893-70.068 15.137-31.006 41.992-48.34 27.1-17.578 58.594-17.578 51.514 0 80.078 33.936 28.558 33.93 28.558 97.16v18.799h-178.96q0.97656 39.062 22.705 63.232 21.973 23.926 55.664 23.926 23.926 0 40.527-9.7656 16.602-9.7656 29.053-25.879l27.588 21.484q-33.203 51.025-99.609 51.025zm-5.6152-236.82q-27.344 0-45.898 20.02-18.555 19.775-22.949 55.664h132.32v-3.418q-1.9531-34.424-18.555-53.223-16.602-19.043-44.922-19.043z"/>
   <path id="path4150" d="m96.262 386.87h-45.166v-375h45.166v375z"/>
   <path id="path4152" d="m277.9 391.76q-53.711 0-87.402-35.156-33.691-35.4-33.691-94.482v-8.3008q0-39.307 14.893-70.068 15.137-31.006 41.992-48.34 27.1-17.578 58.594-17.578 51.514 0 80.078 33.936t28.564 97.168v18.799h-178.96q0.97656 39.062 22.705 63.232 21.973 23.926 55.664 23.926 23.926 0 40.527-9.7656 16.602-9.7656 29.053-25.879l27.588 21.484q-33.203 51.025-99.609 51.025zm-5.6152-236.82q-27.344 0-45.898 20.02-18.555 19.775-22.949 55.664h132.32v-3.418q-1.9531-34.424-18.555-53.223-16.602-19.043-44.922-19.043z"/>
   <path id="path4154" d="m475.66 122.71 1.4648 33.203q30.273-38.086 79.102-38.086 83.74 0 84.473 94.482v174.56h-45.166v-174.8q-0.24414-28.564-13.184-42.236-12.695-13.672-39.795-13.672-21.973 0-38.574 11.719-16.602 11.719-25.879 30.762v188.23h-45.166v-264.16h42.725z"/>
   <path id="path4156" d="m818.92 391.76q-53.711 0-87.402-35.156-33.691-35.4-33.691-94.482v-8.3008q0-39.307 14.893-70.068 15.137-31.006 41.992-48.34 27.1-17.578 58.594-17.578 51.514 0 80.078 33.936t28.564 97.168v18.799h-178.96q0.97657 39.062 22.705 63.232 21.973 23.926 55.664 23.926 23.926 0 40.527-9.7656 16.602-9.7656 29.053-25.879l27.588 21.484q-33.203 51.025-99.609 51.025zm-5.6152-236.82q-27.344 0-45.898 20.02-18.555 19.775-22.949 55.664h132.32v-3.418q-1.9531-34.424-18.555-53.223-16.602-19.043-44.922-19.043z"/>
  </g>
 </g>
</svg>
